<svg width="301" height="269" viewBox="0 0 301 269" fill="none" xmlns="http://www.w3.org/2000/svg">
<circle cx="275.924" cy="136.147" r="25" fill="#FFF8E1"/>
<path d="M281.133 143.438H270.716V128.855H281.133M281.133 124.688H270.716C269.56 124.688 268.633 125.615 268.633 126.772V145.522C268.633 146.074 268.852 146.604 269.243 146.995C269.634 147.385 270.164 147.605 270.716 147.605H281.133C281.685 147.605 282.215 147.385 282.606 146.995C282.997 146.604 283.216 146.074 283.216 145.522V126.772C283.216 125.615 282.279 124.688 281.133 124.688Z" fill="#FFC107"/>
<circle cx="25.9238" cy="136.147" r="25" fill="#F3E5F5"/>
<path d="M18.6318 139.793L15.5068 142.855V134.064H18.6318M23.8402 137.876L22.2048 136.48L20.7152 137.855V129.897H23.8402M29.0485 136.147L25.9235 139.272V125.73H29.0485M31.9756 135.949L30.0902 134.064H35.2985V139.272L33.4339 137.408L25.9235 144.855L22.3089 141.71L18.3714 145.522H15.5068L22.2464 138.918L25.9235 142.022" fill="#9C27B0"/>
<circle cx="86.9238" cy="25.147" r="25" fill="#FCE4EC"/>
<path d="M77.1419 30.2098V34.1161H81.0482L92.569 22.5848L88.6628 18.6785L77.1419 30.2098ZM97.569 31.3661L93.1419 35.7931L87.7253 30.3765L89.569 28.5327L90.6107 29.5744L93.1836 26.991L94.6628 28.4702L93.1419 29.9494L94.2461 30.9911L95.7253 29.5327L97.569 31.3661ZM80.9023 23.5223L75.4648 18.116L79.8919 13.689L81.7253 15.5327L79.1523 18.116L80.2669 19.2202L82.8294 16.6369L84.3086 18.116L82.8294 19.5848L83.8711 20.6265L80.9023 23.5223ZM95.5898 19.5327C95.9961 19.1265 95.9961 18.491 95.5898 18.064L93.1523 15.6681C92.7669 15.2619 92.0898 15.2619 91.6836 15.6681L89.7669 17.5744L93.6732 21.4806L95.5898 19.5327Z" fill="#FF4081"/>
<circle cx="86.9238" cy="243.147" r="25" fill="#FFF3E0"/>
<path d="M92.7105 248.934H81.1365V237.36H92.7105M97.3402 241.99V239.675H95.0254V237.36C95.0254 236.075 93.9837 235.045 92.7105 235.045H90.3957V232.73H88.0809V235.045H85.7661V232.73H83.4513V235.045H81.1365C79.8517 235.045 78.8217 236.075 78.8217 237.36V239.675H76.5068V241.99H78.8217V244.305H76.5068V246.619H78.8217V248.934C78.8217 249.548 79.0655 250.137 79.4996 250.571C79.9338 251.005 80.5225 251.249 81.1365 251.249H83.4513V253.564H85.7661V251.249H88.0809V253.564H90.3957V251.249H92.7105C93.3245 251.249 93.9132 251.005 94.3474 250.571C94.7815 250.137 95.0254 249.548 95.0254 248.934V246.619H97.3402V244.305H95.0254V241.99M88.0809 244.305H85.7661V241.99H88.0809M90.3957 239.675H83.4513V246.619H90.3957V239.675Z" fill="#FF9800"/>
<circle cx="211.924" cy="243.147" r="25" fill="#F5F5F5"/>
<path d="M221.298 247.314V234.814H202.548V247.314H221.298ZM221.298 232.73C221.851 232.73 222.381 232.95 222.771 233.341C223.162 233.731 223.382 234.261 223.382 234.814V247.314C223.382 247.866 223.162 248.396 222.771 248.787C222.381 249.178 221.851 249.397 221.298 249.397H214.007V251.48H216.09V253.564H207.757V251.48H209.84V249.397H202.548C201.392 249.397 200.465 248.46 200.465 247.314V234.814C200.465 233.658 201.392 232.73 202.548 232.73H221.298ZM204.632 236.897H214.007V242.105H204.632V236.897ZM215.048 236.897H219.215V238.98H215.048V236.897ZM219.215 240.022V245.23H215.048V240.022H219.215ZM204.632 243.147H208.798V245.23H204.632V243.147ZM209.84 243.147H214.007V245.23H209.84V243.147Z" fill="#9E9E9E"/>
<circle cx="149.924" cy="136.147" r="25" fill="#FFEBEE"/>
<path d="M147.492 126.772V144.133H150.965V126.772H147.492ZM150.965 129.087L155.594 144.133L159.066 142.975L154.437 127.929L150.965 129.087ZM142.863 129.087V144.133H146.335V129.087H142.863ZM140.548 145.29V147.605H161.381V145.29H140.548Z" fill="#FF5722"/>
<circle cx="211.924" cy="25.147" r="25" fill="#E3F2FD"/>
<path d="M216.465 27.2305C216.549 26.543 216.611 25.8555 216.611 25.1471C216.611 24.4388 216.549 23.7513 216.465 23.0638H219.986C220.153 23.7305 220.257 24.4284 220.257 25.1471C220.257 25.8659 220.153 26.5638 219.986 27.2305M214.621 33.0221C215.246 31.8659 215.726 30.6159 216.059 29.3138H219.132C218.132 31.0326 216.538 32.3659 214.621 33.0221ZM214.361 27.2305H209.486C209.382 26.543 209.319 25.8555 209.319 25.1471C209.319 24.4388 209.382 23.7409 209.486 23.0638H214.361C214.455 23.7409 214.528 24.4388 214.528 25.1471C214.528 25.8555 214.455 26.543 214.361 27.2305ZM211.924 33.4388C211.059 32.1888 210.361 30.8034 209.934 29.3138H213.913C213.486 30.8034 212.788 32.1888 211.924 33.4388ZM207.757 20.9805H204.715C205.705 19.2513 207.309 17.918 209.215 17.2721C208.59 18.4284 208.121 19.6784 207.757 20.9805ZM204.715 29.3138H207.757C208.121 30.6159 208.59 31.8659 209.215 33.0221C207.309 32.3659 205.705 31.0326 204.715 29.3138ZM203.861 27.2305C203.694 26.5638 203.59 25.8659 203.59 25.1471C203.59 24.4284 203.694 23.7305 203.861 23.0638H207.382C207.299 23.7513 207.236 24.4388 207.236 25.1471C207.236 25.8555 207.299 26.543 207.382 27.2305M211.924 16.8451C212.788 18.0951 213.486 19.4909 213.913 20.9805H209.934C210.361 19.4909 211.059 18.0951 211.924 16.8451ZM219.132 20.9805H216.059C215.726 19.6784 215.246 18.4284 214.621 17.2721C216.538 17.9284 218.132 19.2513 219.132 20.9805ZM211.924 14.7305C206.163 14.7305 201.507 19.418 201.507 25.1471C201.507 27.9098 202.604 30.5593 204.558 32.5128C205.525 33.4801 206.673 34.2474 207.937 34.7709C209.201 35.2944 210.556 35.5638 211.924 35.5638C214.686 35.5638 217.336 34.4663 219.289 32.5128C221.243 30.5593 222.34 27.9098 222.34 25.1471C222.34 23.7792 222.071 22.4247 221.547 21.1608C221.024 19.897 220.256 18.7487 219.289 17.7814C218.322 16.8142 217.174 16.0469 215.91 15.5234C214.646 14.9999 213.291 14.7305 211.924 14.7305Z" fill="#2979FF"/>
</svg>
