<svg width="48" height="48" viewBox="0 0 48 48" fill="none" xmlns="http://www.w3.org/2000/svg">
<circle cx="24" cy="24" r="24" fill="#F5F5F5"/>
<path d="M33 28V16H15V28H33ZM33 14C33.5304 14 34.0391 14.2107 34.4142 14.5858C34.7893 14.9609 35 15.4696 35 16V28C35 28.5304 34.7893 29.0391 34.4142 29.4142C34.0391 29.7893 33.5304 30 33 30H26V32H28V34H20V32H22V30H15C13.89 30 13 29.1 13 28V16C13 14.89 13.89 14 15 14H33ZM17 18H26V23H17V18ZM27 18H31V20H27V18ZM31 21V26H27V21H31ZM17 24H21V26H17V24ZM22 24H26V26H22V24Z" fill="#9E9E9E"/>
</svg>
