<svg width="48" height="48" viewBox="0 0 48 48" fill="none" xmlns="http://www.w3.org/2000/svg">
<circle cx="24" cy="24" r="24" fill="#FFF3E0"/>
<path d="M29.5556 29.5556H18.4444V18.4444H29.5556M34 22.8889V20.6667H31.7778V18.4444C31.7778 17.2111 30.7778 16.2222 29.5556 16.2222H27.3333V14H25.1111V16.2222H22.8889V14H20.6667V16.2222H18.4444C17.2111 16.2222 16.2222 17.2111 16.2222 18.4444V20.6667H14V22.8889H16.2222V25.1111H14V27.3333H16.2222V29.5556C16.2222 30.1449 16.4563 30.7102 16.8731 31.1269C17.2898 31.5437 17.8551 31.7778 18.4444 31.7778H20.6667V34H22.8889V31.7778H25.1111V34H27.3333V31.7778H29.5556C30.1449 31.7778 30.7102 31.5437 31.1269 31.1269C31.5437 30.7102 31.7778 30.1449 31.7778 29.5556V27.3333H34V25.1111H31.7778V22.8889M25.1111 25.1111H22.8889V22.8889H25.1111M27.3333 20.6667H20.6667V27.3333H27.3333V20.6667Z" fill="#FF9800"/>
</svg>
