<svg width="48" height="48" viewBox="0 0 48 48" fill="none" xmlns="http://www.w3.org/2000/svg">
<circle cx="24" cy="24" r="24" fill="#FCE4EC"/>
<path d="M14.61 28.86V32.61H18.36L29.42 21.54L25.67 17.79L14.61 28.86ZM34.22 29.97L29.97 34.22L24.77 29.02L26.54 27.25L27.54 28.25L30.01 25.77L31.43 27.19L29.97 28.61L31.03 29.61L32.45 28.21L34.22 29.97ZM18.22 22.44L13 17.25L17.25 13L19.01 14.77L16.54 17.25L17.61 18.31L20.07 15.83L21.49 17.25L20.07 18.66L21.07 19.66L18.22 22.44ZM32.32 18.61C32.71 18.22 32.71 17.61 32.32 17.2L29.98 14.9C29.61 14.51 28.96 14.51 28.57 14.9L26.73 16.73L30.48 20.48L32.32 18.61Z" fill="#FF4081"/>
</svg>
